<mxfile host="65bd71144e">
    <diagram id="R2lEEEUBdFMjLlhIrx00" name="Page-1">
        <mxGraphModel dx="1052" dy="918" grid="1" gridSize="10" guides="1" tooltips="1" connect="1" arrows="1" fold="1" page="1" pageScale="1" pageWidth="3300" pageHeight="4681" math="0" shadow="0" extFonts="Permanent Marker^https://fonts.googleapis.com/css?family=Permanent+Marker">
            <root>
                <mxCell id="0"/>
                <mxCell id="1" parent="0"/>
                <mxCell id="QKJgqJJw7sDUuffqFae5-2" value="Cliente" style="text;html=1;align=center;verticalAlign=middle;resizable=0;points=[];autosize=1;strokeColor=none;fillColor=none;" parent="1" vertex="1">
                    <mxGeometry x="550" y="35" width="60" height="30" as="geometry"/>
                </mxCell>
                <mxCell id="QKJgqJJw7sDUuffqFae5-5" style="edgeStyle=orthogonalEdgeStyle;rounded=0;orthogonalLoop=1;jettySize=auto;html=1;entryX=0.5;entryY=0;entryDx=0;entryDy=0;entryPerimeter=0;" parent="1" target="QKJgqJJw7sDUuffqFae5-8" edge="1">
                    <mxGeometry relative="1" as="geometry">
                        <mxPoint x="690" y="210" as="sourcePoint"/>
                        <mxPoint x="690" y="240" as="targetPoint"/>
                    </mxGeometry>
                </mxCell>
                <mxCell id="QKJgqJJw7sDUuffqFae5-6" style="edgeStyle=orthogonalEdgeStyle;rounded=0;orthogonalLoop=1;jettySize=auto;html=1;exitX=0.5;exitY=1;exitDx=0;exitDy=0;entryX=0.5;entryY=0;entryDx=0;entryDy=0;entryPerimeter=0;" parent="1" target="QKJgqJJw7sDUuffqFae5-4" edge="1">
                    <mxGeometry relative="1" as="geometry">
                        <mxPoint x="690" y="340" as="sourcePoint"/>
                        <Array as="points">
                            <mxPoint x="690" y="320"/>
                            <mxPoint x="690" y="320"/>
                        </Array>
                    </mxGeometry>
                </mxCell>
                <mxCell id="QKJgqJJw7sDUuffqFae5-9" style="edgeStyle=orthogonalEdgeStyle;rounded=0;orthogonalLoop=1;jettySize=auto;html=1;exitX=1;exitY=0.5;exitDx=0;exitDy=0;exitPerimeter=0;entryX=0;entryY=0.5;entryDx=0;entryDy=0;" parent="1" source="QKJgqJJw7sDUuffqFae5-4" target="QKJgqJJw7sDUuffqFae5-7" edge="1">
                    <mxGeometry relative="1" as="geometry"/>
                </mxCell>
                <mxCell id="QKJgqJJw7sDUuffqFae5-13" style="edgeStyle=orthogonalEdgeStyle;rounded=0;orthogonalLoop=1;jettySize=auto;html=1;exitX=0.5;exitY=1;exitDx=0;exitDy=0;exitPerimeter=0;entryX=0.5;entryY=0;entryDx=0;entryDy=0;" parent="1" source="QKJgqJJw7sDUuffqFae5-4" target="QKJgqJJw7sDUuffqFae5-12" edge="1">
                    <mxGeometry relative="1" as="geometry"/>
                </mxCell>
                <mxCell id="QKJgqJJw7sDUuffqFae5-4" value="Temperatura &amp;lt; 30 graus?" style="strokeWidth=2;html=1;shape=mxgraph.flowchart.decision;whiteSpace=wrap;" parent="1" vertex="1">
                    <mxGeometry x="625" y="370" width="130" height="130" as="geometry"/>
                </mxCell>
                <mxCell id="QKJgqJJw7sDUuffqFae5-15" value="" style="edgeStyle=orthogonalEdgeStyle;rounded=0;orthogonalLoop=1;jettySize=auto;html=1;entryX=0;entryY=0.5;entryDx=0;entryDy=0;" parent="1" source="QKJgqJJw7sDUuffqFae5-7" target="QKJgqJJw7sDUuffqFae5-16" edge="1">
                    <mxGeometry relative="1" as="geometry">
                        <mxPoint x="1020" y="435" as="targetPoint"/>
                    </mxGeometry>
                </mxCell>
                <mxCell id="QKJgqJJw7sDUuffqFae5-7" value="Comando Ligar LED Verde" style="rounded=1;whiteSpace=wrap;html=1;absoluteArcSize=1;arcSize=14;strokeWidth=2;" parent="1" vertex="1">
                    <mxGeometry x="850" y="385" width="100" height="100" as="geometry"/>
                </mxCell>
                <mxCell id="QKJgqJJw7sDUuffqFae5-8" value="Requisita a temperatura a cada 1 min" style="strokeWidth=2;html=1;shape=mxgraph.flowchart.loop_limit;whiteSpace=wrap;" parent="1" vertex="1">
                    <mxGeometry x="640" y="260" width="100" height="60" as="geometry"/>
                </mxCell>
                <mxCell id="QKJgqJJw7sDUuffqFae5-10" value="SIM" style="text;html=1;align=center;verticalAlign=middle;resizable=0;points=[];autosize=1;strokeColor=none;fillColor=none;" parent="1" vertex="1">
                    <mxGeometry x="770" y="385" width="40" height="30" as="geometry"/>
                </mxCell>
                <mxCell id="QKJgqJJw7sDUuffqFae5-11" value="NÃO" style="text;html=1;align=center;verticalAlign=middle;resizable=0;points=[];autosize=1;strokeColor=none;fillColor=none;" parent="1" vertex="1">
                    <mxGeometry x="605" y="505" width="50" height="30" as="geometry"/>
                </mxCell>
                <mxCell id="QKJgqJJw7sDUuffqFae5-22" style="edgeStyle=orthogonalEdgeStyle;rounded=0;orthogonalLoop=1;jettySize=auto;html=1;exitX=0.5;exitY=1;exitDx=0;exitDy=0;entryX=0.5;entryY=0;entryDx=0;entryDy=0;" parent="1" source="QKJgqJJw7sDUuffqFae5-12" target="QKJgqJJw7sDUuffqFae5-21" edge="1">
                    <mxGeometry relative="1" as="geometry"/>
                </mxCell>
                <mxCell id="QKJgqJJw7sDUuffqFae5-12" value="Comando Ligar LED Vermelho" style="rounded=1;whiteSpace=wrap;html=1;absoluteArcSize=1;arcSize=14;strokeWidth=2;" parent="1" vertex="1">
                    <mxGeometry x="640" y="560" width="100" height="100" as="geometry"/>
                </mxCell>
                <mxCell id="QKJgqJJw7sDUuffqFae5-16" value="Comando Desligar LED Vermelho" style="rounded=1;whiteSpace=wrap;html=1;absoluteArcSize=1;arcSize=14;strokeWidth=2;" parent="1" vertex="1">
                    <mxGeometry x="1030" y="385" width="110" height="100" as="geometry"/>
                </mxCell>
                <mxCell id="QKJgqJJw7sDUuffqFae5-57" style="edgeStyle=orthogonalEdgeStyle;rounded=0;orthogonalLoop=1;jettySize=auto;html=1;exitX=0.5;exitY=1;exitDx=0;exitDy=0;entryX=0.5;entryY=0;entryDx=0;entryDy=0;entryPerimeter=0;" parent="1" source="QKJgqJJw7sDUuffqFae5-21" target="QKJgqJJw7sDUuffqFae5-31" edge="1">
                    <mxGeometry relative="1" as="geometry"/>
                </mxCell>
                <mxCell id="QKJgqJJw7sDUuffqFae5-21" value="Comando Desligar LED Verde" style="rounded=1;whiteSpace=wrap;html=1;absoluteArcSize=1;arcSize=14;strokeWidth=2;" parent="1" vertex="1">
                    <mxGeometry x="635" y="710" width="110" height="100" as="geometry"/>
                </mxCell>
                <mxCell id="QKJgqJJw7sDUuffqFae5-24" value="LED Verde desligado&lt;br&gt;&lt;br&gt;LED Vermelho desligado" style="rounded=1;whiteSpace=wrap;html=1;absoluteArcSize=1;arcSize=14;strokeWidth=2;" parent="1" vertex="1">
                    <mxGeometry x="595" y="120" width="190" height="100" as="geometry"/>
                </mxCell>
                <mxCell id="QKJgqJJw7sDUuffqFae5-27" style="edgeStyle=orthogonalEdgeStyle;rounded=0;orthogonalLoop=1;jettySize=auto;html=1;exitX=0.5;exitY=1;exitDx=0;exitDy=0;exitPerimeter=0;entryX=0.5;entryY=0;entryDx=0;entryDy=0;" parent="1" source="QKJgqJJw7sDUuffqFae5-25" target="QKJgqJJw7sDUuffqFae5-24" edge="1">
                    <mxGeometry relative="1" as="geometry"/>
                </mxCell>
                <mxCell id="QKJgqJJw7sDUuffqFae5-25" value="Início" style="strokeWidth=2;html=1;shape=mxgraph.flowchart.start_1;whiteSpace=wrap;" parent="1" vertex="1">
                    <mxGeometry x="640" y="20" width="100" height="60" as="geometry"/>
                </mxCell>
                <mxCell id="QKJgqJJw7sDUuffqFae5-28" value="" style="edgeStyle=orthogonalEdgeStyle;rounded=0;orthogonalLoop=1;jettySize=auto;html=1;entryX=0;entryY=0.5;entryDx=0;entryDy=0;exitX=1;exitY=0.5;exitDx=0;exitDy=0;" parent="1" source="QKJgqJJw7sDUuffqFae5-16" edge="1">
                    <mxGeometry relative="1" as="geometry">
                        <mxPoint x="1150" y="435" as="sourcePoint"/>
                        <mxPoint x="1220" y="435" as="targetPoint"/>
                    </mxGeometry>
                </mxCell>
                <mxCell id="QKJgqJJw7sDUuffqFae5-33" style="edgeStyle=orthogonalEdgeStyle;rounded=0;orthogonalLoop=1;jettySize=auto;html=1;exitX=1;exitY=0.5;exitDx=0;exitDy=0;exitPerimeter=0;entryX=1;entryY=0.5;entryDx=0;entryDy=0;entryPerimeter=0;" parent="1" source="QKJgqJJw7sDUuffqFae5-30" target="QKJgqJJw7sDUuffqFae5-8" edge="1">
                    <mxGeometry relative="1" as="geometry"/>
                </mxCell>
                <mxCell id="QKJgqJJw7sDUuffqFae5-30" value="Exibe temperatura e indicação de LED Verde ligado" style="strokeWidth=2;html=1;shape=mxgraph.flowchart.display;whiteSpace=wrap;" parent="1" vertex="1">
                    <mxGeometry x="1220" y="392.5" width="140" height="87.5" as="geometry"/>
                </mxCell>
                <mxCell id="QKJgqJJw7sDUuffqFae5-32" style="edgeStyle=orthogonalEdgeStyle;rounded=0;orthogonalLoop=1;jettySize=auto;html=1;exitX=0;exitY=0.5;exitDx=0;exitDy=0;exitPerimeter=0;entryX=0;entryY=0.5;entryDx=0;entryDy=0;entryPerimeter=0;" parent="1" source="QKJgqJJw7sDUuffqFae5-31" target="QKJgqJJw7sDUuffqFae5-8" edge="1">
                    <mxGeometry relative="1" as="geometry">
                        <Array as="points">
                            <mxPoint x="550" y="924"/>
                            <mxPoint x="550" y="290"/>
                        </Array>
                    </mxGeometry>
                </mxCell>
                <mxCell id="QKJgqJJw7sDUuffqFae5-31" value="Exibe temperatura e indicação de LED Vermelho ligado" style="strokeWidth=2;html=1;shape=mxgraph.flowchart.display;whiteSpace=wrap;" parent="1" vertex="1">
                    <mxGeometry x="620" y="880" width="140" height="87.5" as="geometry"/>
                </mxCell>
                <mxCell id="QKJgqJJw7sDUuffqFae5-34" value="Servidor" style="text;html=1;align=center;verticalAlign=middle;resizable=0;points=[];autosize=1;strokeColor=none;fillColor=none;" parent="1" vertex="1">
                    <mxGeometry x="1605" y="35" width="70" height="30" as="geometry"/>
                </mxCell>
                <mxCell id="QKJgqJJw7sDUuffqFae5-64" style="edgeStyle=orthogonalEdgeStyle;rounded=0;orthogonalLoop=1;jettySize=auto;html=1;exitX=0.5;exitY=1;exitDx=0;exitDy=0;exitPerimeter=0;entryX=0.5;entryY=0;entryDx=0;entryDy=0;entryPerimeter=0;" parent="1" source="QKJgqJJw7sDUuffqFae5-42" target="QKJgqJJw7sDUuffqFae5-60" edge="1">
                    <mxGeometry relative="1" as="geometry"/>
                </mxCell>
                <mxCell id="QKJgqJJw7sDUuffqFae5-42" value="Aguarda comando do cliente" style="strokeWidth=2;html=1;shape=mxgraph.flowchart.loop_limit;whiteSpace=wrap;" parent="1" vertex="1">
                    <mxGeometry x="1700" y="130" width="100" height="60" as="geometry"/>
                </mxCell>
                <mxCell id="QKJgqJJw7sDUuffqFae5-59" style="edgeStyle=orthogonalEdgeStyle;rounded=0;orthogonalLoop=1;jettySize=auto;html=1;exitX=0.5;exitY=1;exitDx=0;exitDy=0;exitPerimeter=0;entryX=0.5;entryY=0;entryDx=0;entryDy=0;entryPerimeter=0;" parent="1" source="QKJgqJJw7sDUuffqFae5-51" target="QKJgqJJw7sDUuffqFae5-42" edge="1">
                    <mxGeometry relative="1" as="geometry"/>
                </mxCell>
                <mxCell id="QKJgqJJw7sDUuffqFae5-51" value="Início" style="strokeWidth=2;html=1;shape=mxgraph.flowchart.start_1;whiteSpace=wrap;" parent="1" vertex="1">
                    <mxGeometry x="1700" y="20" width="100" height="60" as="geometry"/>
                </mxCell>
                <mxCell id="QKJgqJJw7sDUuffqFae5-63" style="edgeStyle=orthogonalEdgeStyle;rounded=0;orthogonalLoop=1;jettySize=auto;html=1;exitX=1;exitY=0.5;exitDx=0;exitDy=0;exitPerimeter=0;entryX=0;entryY=0.5;entryDx=0;entryDy=0;" parent="1" source="QKJgqJJw7sDUuffqFae5-60" target="QKJgqJJw7sDUuffqFae5-62" edge="1">
                    <mxGeometry relative="1" as="geometry"/>
                </mxCell>
                <mxCell id="QKJgqJJw7sDUuffqFae5-68" style="edgeStyle=orthogonalEdgeStyle;rounded=0;orthogonalLoop=1;jettySize=auto;html=1;exitX=0.5;exitY=1;exitDx=0;exitDy=0;exitPerimeter=0;entryX=0;entryY=0.5;entryDx=0;entryDy=0;entryPerimeter=0;" parent="1" source="QKJgqJJw7sDUuffqFae5-60" target="QKJgqJJw7sDUuffqFae5-42" edge="1">
                    <mxGeometry relative="1" as="geometry">
                        <mxPoint x="1600" y="220" as="targetPoint"/>
                        <Array as="points">
                            <mxPoint x="1750" y="412"/>
                            <mxPoint x="1610" y="412"/>
                            <mxPoint x="1610" y="160"/>
                        </Array>
                    </mxGeometry>
                </mxCell>
                <mxCell id="QKJgqJJw7sDUuffqFae5-60" value="Comando de leitura de temperatura?" style="strokeWidth=2;html=1;shape=mxgraph.flowchart.decision;whiteSpace=wrap;" parent="1" vertex="1">
                    <mxGeometry x="1677.5" y="242.5" width="145" height="150" as="geometry"/>
                </mxCell>
                <mxCell id="QKJgqJJw7sDUuffqFae5-61" value="SIM" style="text;html=1;align=center;verticalAlign=middle;resizable=0;points=[];autosize=1;strokeColor=none;fillColor=none;" parent="1" vertex="1">
                    <mxGeometry x="1860" y="270" width="40" height="30" as="geometry"/>
                </mxCell>
                <mxCell id="QKJgqJJw7sDUuffqFae5-66" style="edgeStyle=orthogonalEdgeStyle;rounded=0;orthogonalLoop=1;jettySize=auto;html=1;exitX=1;exitY=0.5;exitDx=0;exitDy=0;entryX=0;entryY=0.5;entryDx=0;entryDy=0;" parent="1" source="QKJgqJJw7sDUuffqFae5-62" target="QKJgqJJw7sDUuffqFae5-65" edge="1">
                    <mxGeometry relative="1" as="geometry"/>
                </mxCell>
                <mxCell id="QKJgqJJw7sDUuffqFae5-62" value="Ler temperatura do DHT" style="rounded=1;whiteSpace=wrap;html=1;absoluteArcSize=1;arcSize=14;strokeWidth=2;" parent="1" vertex="1">
                    <mxGeometry x="1930" y="267.5" width="110" height="100" as="geometry"/>
                </mxCell>
                <mxCell id="QKJgqJJw7sDUuffqFae5-67" style="edgeStyle=orthogonalEdgeStyle;rounded=0;orthogonalLoop=1;jettySize=auto;html=1;exitX=1;exitY=0.5;exitDx=0;exitDy=0;entryX=1;entryY=0.5;entryDx=0;entryDy=0;entryPerimeter=0;" parent="1" source="QKJgqJJw7sDUuffqFae5-65" target="QKJgqJJw7sDUuffqFae5-42" edge="1">
                    <mxGeometry relative="1" as="geometry"/>
                </mxCell>
                <mxCell id="QKJgqJJw7sDUuffqFae5-65" value="Envia dados de temperatura" style="rounded=1;whiteSpace=wrap;html=1;absoluteArcSize=1;arcSize=14;strokeWidth=2;" parent="1" vertex="1">
                    <mxGeometry x="2130" y="267.5" width="110" height="100" as="geometry"/>
                </mxCell>
                <mxCell id="QKJgqJJw7sDUuffqFae5-69" value="NÃO" style="text;html=1;align=center;verticalAlign=middle;resizable=0;points=[];autosize=1;strokeColor=none;fillColor=none;" parent="1" vertex="1">
                    <mxGeometry x="1655" y="415" width="50" height="30" as="geometry"/>
                </mxCell>
                <mxCell id="QKJgqJJw7sDUuffqFae5-72" value="&lt;br&gt;&lt;br&gt;" style="whiteSpace=wrap;html=1;aspect=fixed;" parent="1" vertex="1">
                    <mxGeometry x="1230" y="590" width="560" height="560" as="geometry"/>
                </mxCell>
                <mxCell id="QKJgqJJw7sDUuffqFae5-74" value="&lt;h1&gt;Protocolo&lt;/h1&gt;&lt;p&gt;Request:&lt;/p&gt;&lt;p&gt;&lt;span&gt;Operation: 1 byte&amp;nbsp; &amp;nbsp; &amp;nbsp;r - read, w - write&lt;/span&gt;&lt;/p&gt;&lt;p&gt;&lt;span&gt;Measurement: 1 byte&amp;nbsp; &amp;nbsp; t - temperature&amp;nbsp;&lt;/span&gt;&lt;/p&gt;&lt;p&gt;Exemplo para requisitar a leitura de temperatura:&amp;nbsp; rt&amp;nbsp; &amp;nbsp;(read temperature)&lt;br&gt;&lt;br&gt;&lt;br&gt;&lt;br&gt;&lt;br&gt;Response&lt;/p&gt;&lt;p&gt;Measurement: 1 byte&amp;nbsp; &amp;nbsp; &amp;nbsp;t - temperature&lt;/p&gt;&lt;p&gt;Value: 1 byte&amp;nbsp; &amp;nbsp; -128 a 127&lt;/p&gt;&lt;p&gt;Exemplo de resposta de temperatura:&amp;nbsp; t25 (temperature de 25 graus)&lt;/p&gt;&lt;p&gt;&lt;br&gt;&lt;/p&gt;&lt;p&gt;&lt;br&gt;&lt;/p&gt;&lt;p&gt;LED commands&lt;/p&gt;&lt;p&gt;Operations:&amp;nbsp;&lt;/p&gt;&lt;p&gt;&lt;span&gt;&#9;&lt;/span&gt;- lg - Turns the Green LED on&lt;/p&gt;&lt;p&gt;&lt;span&gt;&#9;&lt;/span&gt;-&amp;nbsp;lr - Turns the Red LED on&lt;br&gt;&lt;/p&gt;" style="text;html=1;strokeColor=none;fillColor=none;spacing=5;spacingTop=-20;whiteSpace=wrap;overflow=hidden;rounded=0;" parent="1" vertex="1">
                    <mxGeometry x="1250" y="610" width="520" height="520" as="geometry"/>
                </mxCell>
                <mxCell id="QKJgqJJw7sDUuffqFae5-75" value="Sistemas Distribuídos e de Tempo Real&lt;br&gt;&lt;br&gt;Lista 4&amp;nbsp;&lt;br&gt;&lt;br&gt;Davi Schmitz" style="text;html=1;align=center;verticalAlign=middle;resizable=0;points=[];autosize=1;strokeColor=none;fillColor=none;" parent="1" vertex="1">
                    <mxGeometry x="1080" y="20" width="230" height="90" as="geometry"/>
                </mxCell>
            </root>
        </mxGraphModel>
    </diagram>
</mxfile>